<svg width="423" height="423" viewBox="0 0 423 423" fill="none" xmlns="http://www.w3.org/2000/svg">
<path d="M26.5361 100.036L29.1332 101.377L178.458 178.444L101.554 28.9481L100.219 26.3538L119.865 6.70807L122.371 11.5901L203.408 169.424L204.74 172.018L172.201 204.558L169.609 203.231L11.6054 122.363L6.71367 119.859L26.5361 100.036Z" fill="#08979C" stroke="#08979C" stroke-width="8"/>
<path d="M395.511 321.99L392.914 320.65L243.589 243.583L320.493 393.078L321.828 395.673L302.182 415.318L299.676 410.436L218.639 252.602L217.307 250.008L249.846 217.469L252.438 218.796L410.441 299.664L415.333 302.167L395.511 321.99Z" fill="#08979C" stroke="#08979C" stroke-width="8"/>
<path d="M100.279 393.975L101.622 391.377L177.53 244.507L30.4917 320.254L27.896 321.592L8.47955 302.175L13.3568 299.668L168.795 219.746L171.39 218.413L203.457 250.481L202.129 253.073L122.374 408.679L119.869 413.565L100.279 393.975Z" fill="#08979C" stroke="#08979C" stroke-width="8"/>
<path d="M321.772 28.0503L320.429 30.6481L244.521 177.518L391.559 101.771L394.155 100.433L413.571 119.85L408.694 122.357L253.255 202.279L250.661 203.612L218.593 171.545L219.922 168.952L299.677 13.3468L302.182 8.46058L321.772 28.0503Z" fill="#08979C" stroke="#08979C" stroke-width="8"/>
</svg>
